<?xml version="1.0" encoding="UTF-8"?>
<!DOCTYPE svg PUBLIC "-//W3C//DTD SVG 1.1//EN" "http://www.w3.org/Graphics/SVG/1.1/DTD/svg11.dtd">
<!-- Creator: CorelDRAW -->
<svg xmlns="http://www.w3.org/2000/svg" xml:space="preserve" width="48.7438mm" height="15.955mm" version="1.1" style="shape-rendering:geometricPrecision; text-rendering:geometricPrecision; image-rendering:optimizeQuality; fill-rule:evenodd; clip-rule:evenodd"
viewBox="0 0 4874.38 1595.5"
 xmlns:xlink="http://www.w3.org/1999/xlink"
 xmlns:xodm="http://www.corel.com/coreldraw/odm/2003">
 <defs>
  <style type="text/css">
   <![CDATA[
    .fil1 {fill:black;fill-rule:nonzero}
    .fil0 {fill:#326DE6;fill-rule:nonzero}
    .fil2 {fill:#326DE6;fill-rule:nonzero}
   ]]>
  </style>
 </defs>
 <g id="Camada_x0020_1">
  <metadata id="CorelCorpID_0Corel-Layer"/>
  <g id="_1891757809856">
   <path class="fil0" d="M578.64 0l-176.56 0 -402.08 0 0 704.52 187.86 -1.24 -178.97 885.49c-1.3,6.46 7.68,9.47 10.53,3.53l536.4 -1118.54 -153.74 0 0 -137.74 183.38 0c147.52,0 267.11,119.58 267.11,267.1 0,147.53 -119.59,267.11 -267.11,267.11l-13.81 0 -161.14 336.02 168.13 0c333.1,0 603.12,-270.03 603.12,-603.13 0,-333.09 -270.02,-603.12 -603.12,-603.12z"/>
   <path class="fil1" d="M452.88 1371.03l-42.21 0 0 112.76 11.92 0 0 -35.6 30.29 0c28.67,0 46.06,-14.5 46.06,-38.5 0,-24.16 -17.39,-38.66 -46.06,-38.66zm-0.33 66.69l-29.96 0 0 -56.38 29.96 0c22.56,0 34.48,10.31 34.48,28.35 0,17.72 -11.92,28.03 -34.48,28.03zm162.21 46.07l-27.55 -38.66c16.43,-5.31 25.77,-17.72 25.77,-35.44 0,-24.16 -17.39,-38.66 -46.06,-38.66l-42.21 0 0 112.76 11.92 0 0 -35.76 30.29 0c3.22,0 6.12,-0.16 9.02,-0.48l25.77 36.24 13.05 0zm-48.17 -45.91l-29.96 0 0 -56.54 29.96 0c22.56,0 34.48,10.31 34.48,28.35 0,17.72 -11.92,28.19 -34.48,28.19zm123.87 46.88c33.83,0 59.12,-24.33 59.12,-57.35 0,-33.02 -25.29,-57.34 -59.12,-57.34 -34.15,0 -59.27,24.48 -59.27,57.34 0,32.86 25.12,57.35 59.27,57.35zm0 -10.63c-27.22,0 -47.52,-19.82 -47.52,-46.72 0,-26.9 20.3,-46.71 47.52,-46.71 27.07,0 47.2,19.81 47.2,46.71 0,26.9 -20.13,46.72 -47.2,46.72zm85.86 9.66l45.91 0c36.08,0 60.41,-23.2 60.41,-56.38 0,-33.18 -24.33,-56.38 -60.41,-56.38l-45.91 0 0 112.76zm11.92 -10.31l0 -92.14 33.35 0c29.96,0 49.29,19.01 49.29,46.07 0,27.06 -19.33,46.07 -49.29,46.07l-33.35 0zm166.56 11.28c28.83,0 46.23,-16.76 46.23,-49.13l0 -64.6 -11.6 0 0 64.11c0,26.74 -12.56,38.99 -34.63,38.99 -21.91,0 -34.47,-12.25 -34.47,-38.99l0 -64.11 -11.92 0 0 64.6c0,32.37 17.55,49.13 46.39,49.13zm131.12 0c16.59,0 31.41,-5.64 41.4,-16.59l-7.57 -7.58c-9.18,9.51 -20.46,13.54 -33.35,13.54 -27.22,0 -47.68,-19.98 -47.68,-46.72 0,-26.74 20.46,-46.71 47.68,-46.71 12.89,0 24.17,4.03 33.35,13.37l7.57 -7.57c-9.99,-10.96 -24.81,-16.43 -41.24,-16.43 -33.99,0 -59.11,24.32 -59.11,57.34 0,33.02 25.12,57.35 58.95,57.35zm66.85 -0.97l11.92 0 0 -112.76 -11.92 0 0 112.76zm131.13 -112.76l0 91.5 -72.65 -91.5 -9.83 0 0 112.76 11.92 0 0 -91.49 72.49 91.49 9.82 0 0 -112.76 -11.75 0zm127.9 94.4c-8.7,6.28 -18.69,8.7 -29.48,8.7 -27.71,0 -48.17,-19.98 -48.17,-46.72 0,-26.9 20.46,-46.71 48.33,-46.71 13.21,0 24.48,3.86 33.99,13.21l7.41 -7.57c-9.99,-10.8 -24.81,-16.27 -41.88,-16.27 -34.48,0 -59.6,24.32 -59.6,57.34 0,33.02 25.12,57.35 59.43,57.35 15.63,0 30.77,-4.84 41.4,-14.34l0 -43.01 -11.43 0 0 38.02zm87.29 18.36l45.91 0c36.08,0 60.41,-23.2 60.41,-56.38 0,-33.18 -24.33,-56.38 -60.41,-56.38l-45.91 0 0 112.76zm11.92 -10.31l0 -92.14 33.35 0c29.96,0 49.29,19.01 49.29,46.07 0,27.06 -19.33,46.07 -49.29,46.07l-33.35 0zm133.05 0l0 -41.88 58.31 0 0 -10.15 -58.31 0 0 -40.11 65.4 0 0 -10.31 -77.32 0 0 112.76 79.74 0 0 -10.31 -67.82 0zm175.9 -102.45l-43.49 97.94 -43.17 -97.94 -12.89 0 49.94 112.76 11.76 0 49.93 -112.76 -12.08 0zm40.27 102.45l0 -41.88 58.31 0 0 -10.15 -58.31 0 0 -40.11 65.4 0 0 -10.31 -77.32 0 0 112.76 79.74 0 0 -10.31 -67.82 0zm95.84 10.31l75.07 0 0 -10.31 -63.15 0 0 -102.45 -11.92 0 0 112.76zm141.91 0.97c33.83,0 59.12,-24.33 59.12,-57.35 0,-33.02 -25.29,-57.34 -59.12,-57.34 -34.15,0 -59.27,24.48 -59.27,57.34 0,32.86 25.12,57.35 59.27,57.35zm0 -10.63c-27.22,0 -47.52,-19.82 -47.52,-46.72 0,-26.9 20.3,-46.71 47.52,-46.71 27.07,0 47.2,19.81 47.2,46.71 0,26.9 -20.13,46.72 -47.2,46.72zm128.07 -103.1l-42.21 0 0 112.76 11.92 0 0 -35.6 30.29 0c28.67,0 46.06,-14.5 46.06,-38.5 0,-24.16 -17.39,-38.66 -46.06,-38.66zm-0.33 66.69l-29.96 0 0 -56.38 29.96 0c22.56,0 34.48,10.31 34.48,28.35 0,17.72 -11.92,28.03 -34.48,28.03zm179.44 -66.69l-48.48 83.6 -48.97 -83.6 -9.83 0 0 112.76 11.44 0 0 -89.72 44.3 75.38 5.63 0 44.3 -75.86 0 90.2 11.44 0 0 -112.76 -9.83 0zm58.47 102.45l0 -41.88 58.31 0 0 -10.15 -58.31 0 0 -40.11 65.4 0 0 -10.31 -77.32 0 0 112.76 79.74 0 0 -10.31 -67.82 0zm178.32 -102.45l0 91.5 -72.65 -91.5 -9.83 0 0 112.76 11.92 0 0 -91.49 72.49 91.49 9.82 0 0 -112.76 -11.75 0zm70.39 112.76l11.92 0 0 -102.45 39.63 0 0 -10.31 -91.18 0 0 10.31 39.63 0 0 102.45zm202.8 0l-27.55 -38.66c16.43,-5.31 25.77,-17.72 25.77,-35.44 0,-24.16 -17.39,-38.66 -46.06,-38.66l-42.21 0 0 112.76 11.92 0 0 -35.76 30.29 0c3.22,0 6.12,-0.16 9.02,-0.48l25.77 36.24 13.05 0zm-48.17 -45.91l-29.96 0 0 -56.54 29.96 0c22.56,0 34.48,10.31 34.48,28.35 0,17.72 -11.92,28.19 -34.48,28.19zm86.5 35.6l0 -41.88 58.31 0 0 -10.15 -58.31 0 0 -40.11 65.4 0 0 -10.31 -77.32 0 0 112.76 79.74 0 0 -10.31 -67.82 0zm180.09 10.31l12.56 0 -51.54 -112.76 -11.76 0 -51.55 112.76 12.41 0 13.53 -30.12 62.82 0 13.53 30.12zm-72 -39.79l27.06 -60.56 27.06 60.56 -54.12 0zm150.6 40.76c16.59,0 31.41,-5.64 41.4,-16.59l-7.57 -7.58c-9.18,9.51 -20.46,13.54 -33.35,13.54 -27.22,0 -47.68,-19.98 -47.68,-46.72 0,-26.74 20.46,-46.71 47.68,-46.71 12.89,0 24.17,4.03 33.35,13.37l7.57 -7.57c-9.99,-10.96 -24.81,-16.43 -41.24,-16.43 -33.99,0 -59.11,24.32 -59.11,57.34 0,33.02 25.12,57.35 58.95,57.35zm87.31 -0.97l11.92 0 0 -102.45 39.63 0 0 -10.31 -91.18 0 0 10.31 39.63 0 0 102.45zm70.55 0l11.92 0 0 -112.76 -11.92 0 0 112.76zm129.03 -112.76l-43.49 97.94 -43.17 -97.94 -12.89 0 49.94 112.76 11.76 0 49.93 -112.76 -12.08 0zm40.27 102.45l0 -41.88 58.31 0 0 -10.15 -58.31 0 0 -40.11 65.4 0 0 -10.31 -77.32 0 0 112.76 79.74 0 0 -10.31 -67.82 0zm187.33 11.28c33.83,0 59.12,-24.33 59.12,-57.35 0,-33.02 -25.29,-57.34 -59.12,-57.34 -34.15,0 -59.27,24.48 -59.27,57.34 0,32.86 25.12,57.35 59.27,57.35zm0 -10.63c-27.22,0 -47.52,-19.82 -47.52,-46.72 0,-26.9 20.3,-46.71 47.52,-46.71 27.07,0 47.2,19.81 47.2,46.71 0,26.9 -20.13,46.72 -47.2,46.72zm128.07 -103.1l-42.21 0 0 112.76 11.92 0 0 -35.6 30.29 0c28.67,0 46.06,-14.5 46.06,-38.5 0,-24.16 -17.39,-38.66 -46.06,-38.66zm-0.33 66.69l-29.96 0 0 -56.38 29.96 0c22.56,0 34.48,10.31 34.48,28.35 0,17.72 -11.92,28.03 -34.48,28.03zm84.08 35.76l0 -41.88 58.31 0 0 -10.15 -58.31 0 0 -40.11 65.4 0 0 -10.31 -77.32 0 0 112.76 79.74 0 0 -10.31 -67.82 0zm185.89 10.31l-27.55 -38.66c16.43,-5.31 25.77,-17.72 25.77,-35.44 0,-24.16 -17.39,-38.66 -46.06,-38.66l-42.21 0 0 112.76 11.92 0 0 -35.76 30.29 0c3.22,0 6.12,-0.16 9.02,-0.48l25.77 36.24 13.05 0zm-48.17 -45.91l-29.96 0 0 -56.54 29.96 0c22.56,0 34.48,10.31 34.48,28.35 0,17.72 -11.92,28.19 -34.48,28.19zm158.83 45.91l12.56 0 -51.54 -112.76 -11.76 0 -51.55 112.76 12.41 0 13.53 -30.12 62.82 0 13.53 30.12zm-72 -39.79l27.06 -60.56 27.06 60.56 -54.12 0zm119.52 39.79l11.92 0 0 -102.45 39.63 0 0 -10.31 -91.18 0 0 10.31 39.63 0 0 102.45zm70.55 0l11.92 0 0 -112.76 -11.92 0 0 112.76zm97.94 0.97c33.83,0 59.12,-24.33 59.12,-57.35 0,-33.02 -25.29,-57.34 -59.12,-57.34 -34.15,0 -59.27,24.48 -59.27,57.34 0,32.86 25.12,57.35 59.27,57.35zm0 -10.63c-27.22,0 -47.52,-19.82 -47.52,-46.72 0,-26.9 20.3,-46.71 47.52,-46.71 27.07,0 47.2,19.81 47.2,46.71 0,26.9 -20.13,46.72 -47.2,46.72zm168.34 -103.1l0 91.5 -72.65 -91.5 -9.83 0 0 112.76 11.92 0 0 -91.49 72.49 91.49 9.82 0 0 -112.76 -11.75 0zm79.57 113.73c28.83,0 42.04,-14.18 42.04,-30.77 0,-41.08 -69.42,-22.39 -69.42,-53.32 0,-11.27 9.18,-20.45 29.8,-20.45 9.98,0 21.26,3.06 30.93,9.34l4.02 -9.51c-9.02,-6.28 -22.23,-9.98 -34.95,-9.98 -28.67,0 -41.56,14.33 -41.56,30.92 0,41.72 69.42,22.72 69.42,53.64 0,11.12 -9.18,19.98 -30.28,19.98 -14.82,0 -29.15,-5.8 -37.21,-13.69l-4.67 9.18c8.38,8.7 24.97,14.66 41.88,14.66z"/>
   <path class="fil2" d="M1240.07 1186.25l529.81 0c381.53,0 643.11,-229.92 643.11,-583.12 0,-353.21 -261.58,-583.13 -643.11,-583.13l-529.81 0 0 1166.25zm269.91 -221.59l0 -723.07 246.58 0c231.58,0 383.19,138.28 383.19,361.54 0,223.25 -151.61,361.53 -383.19,361.53l-246.58 0z"/>
   <path class="fil2" d="M3566.28 1186.25l-261.58 -374.87c151.62,-64.97 239.92,-193.26 239.92,-368.2 0,-261.57 -194.93,-423.18 -506.49,-423.18l-504.82 0 0 1166.25 269.91 0 0 -324.88 234.91 0 13.33 0 224.92 324.88 289.9 0zm-294.9 -743.07c0,126.62 -83.3,203.26 -248.24,203.26l-219.92 0 0 -406.52 219.92 0c164.94,0 248.24,74.98 248.24,203.26z"/>
   <path class="fil2" d="M4236.27 1206.24c366.54,0 638.11,-254.91 638.11,-603.11 0,-348.21 -271.57,-603.12 -638.11,-603.12 -368.2,0 -638.1,256.57 -638.1,603.12 0,346.54 269.9,603.11 638.1,603.11zm0 -229.91c-208.26,0 -364.87,-151.62 -364.87,-373.2 0,-221.59 156.61,-373.2 364.87,-373.2 208.26,0 364.87,151.61 364.87,373.2 0,221.58 -156.61,373.2 -364.87,373.2z"/>
  </g>
 </g>
</svg>
