<?xml version="1.0" encoding="UTF-8"?>
<!DOCTYPE svg PUBLIC "-//W3C//DTD SVG 1.1//EN" "http://www.w3.org/Graphics/SVG/1.1/DTD/svg11.dtd">
<!-- Creator: CorelDRAW -->
<svg xmlns="http://www.w3.org/2000/svg" xml:space="preserve" width="59.1238mm" height="14.1393mm" version="1.1" style="shape-rendering:geometricPrecision; text-rendering:geometricPrecision; image-rendering:optimizeQuality; fill-rule:evenodd; clip-rule:evenodd"
viewBox="0 0 6041.69 1444.85"
 xmlns:xlink="http://www.w3.org/1999/xlink"
 xmlns:xodm="http://www.corel.com/coreldraw/odm/2003">
 <defs>
  <style type="text/css">
   <![CDATA[
    .fil0 {fill:#00D25B}
    .fil1 {fill:#00D25B;fill-rule:nonzero}
    .fil2 {fill:#E6E6E6;fill-rule:nonzero}
   ]]>
  </style>
 </defs>
 <g id="Camada_x0020_1">
  <metadata id="CorelCorpID_0Corel-Layer"/>
  <g id="_1966238306048">
   <path class="fil0" d="M4095.97 408.1c-376.94,-110.94 -649.83,173.87 -610.14,483.73 21.33,166.45 119.4,276.53 227.15,337.01 188.62,105.85 289.84,51.9 463.35,-4.51 56.95,63.93 78.15,107.49 162.77,158.87 72.18,43.83 172.88,68.94 273.51,59.76 210.58,-19.21 304.86,-142.49 381.25,-282.32 243.9,225.04 599.99,109.42 682.3,-65.48 113.24,9.35 156.32,28.12 250.89,-36.4 137.25,-93.61 161.02,-295.8 17.61,-420.23 -81.62,-70.83 -138.47,-56.58 -253.07,-56.51 -62.01,-72.64 -82.88,-113.34 -185.25,-159.5 -103.64,-46.75 -188.19,-47.39 -308.36,-29.91 -1.94,-2.5 -4.52,-9.7 -5.31,-7.9 -0.79,1.79 -4.05,-6.04 -5.1,-7.94 -12.4,-22.51 -1.79,-1.15 -12.6,-24.55 -167.13,-361.74 -567.45,-461.47 -886.79,-221.27 -134.57,101.23 -146.53,224.68 -192.21,277.14z"/>
   <polygon class="fil1" points="334.72,139.58 559.85,926.72 782.55,139.58 1115.37,139.58 717.33,1292.29 402.64,1292.29 -0,139.58 "/>
   <path class="fil1" d="M1774.06 516.24c-4.6,-2.71 -11.1,-6.5 -18.95,-11.1 -7.84,-4.86 -24.08,-13.25 -48.43,-25.43 -24.36,-12.18 -47.9,-22.73 -71.17,-32.2 -23.27,-9.2 -50.33,-17.59 -81.44,-25.17 -30.85,-7.85 -59.26,-11.63 -85.23,-11.63 -61.7,0 -92.54,18.94 -92.54,57.09 0,8.39 1.35,16.24 4.32,23 2.71,6.76 7.85,13.25 15.43,18.94 7.31,5.96 14.61,10.83 21.64,15.15 7.31,4.33 18.13,8.93 33.02,14.35 14.88,5.14 27.6,9.46 38.15,12.71 10.56,2.97 26.52,7.85 48.17,14.61 21.64,6.5 39.51,11.9 53.3,16.24 46.55,14.34 85.78,28.14 118.52,41.94 32.48,13.81 63.87,30.57 94.71,50.33 30.58,19.76 55.2,41.67 73.61,65.49 18.67,23.81 33.28,52.49 44.1,86.04 10.82,33.56 16.24,71.44 16.24,113.65 0,53.3 -8.39,101.47 -25.43,144.22 -16.78,43.03 -39.24,77.94 -67.11,105.26 -27.6,27.06 -60.88,49.79 -99.31,67.65 -38.7,17.86 -78.2,30.57 -118.52,38.16 -40.59,7.31 -83.08,11.09 -127.99,11.09 -83.08,0 -169.94,-12.45 -260.85,-37.06 -90.92,-24.35 -171.01,-57.1 -240.28,-97.69l136.38 -277.62c5.41,3.79 12.45,8.39 21.92,14.07 9.2,5.42 28.14,15.42 57.09,30.03 28.68,14.61 57.09,27.34 84.97,38.43 28.13,11.09 61.41,21.37 99.57,30.57 38.42,9.2 73.87,13.8 106.61,13.8 61.42,0 92,-17.04 92,-50.87 0,-12.45 -4.06,-23.81 -11.9,-33.56 -7.85,-9.74 -21.1,-18.67 -39.51,-27.05 -18.67,-8.12 -36.53,-14.89 -53.58,-20.57 -17.32,-5.42 -41.4,-12.99 -73.05,-22.18 -31.39,-9.21 -57.37,-17.32 -77.94,-24.09 -103.63,-34.91 -178.32,-76.84 -224.05,-125.82 -45.73,-48.7 -68.46,-114.74 -68.46,-197.53 0,-61.97 11.63,-117.99 35.17,-168.31 23.54,-50.06 55.2,-91.19 95.25,-122.85 39.77,-31.66 85.51,-56.01 136.64,-72.79 51.14,-17.04 105.8,-25.43 163.17,-25.43 123.38,0 267.34,41.41 432.13,124.47l-136.38 261.66z"/>
   <path class="fil1" d="M1987.09 1292.29l0 -1152.71 497.07 0c54.39,0 106.35,11.64 155.32,34.91 49.24,23.27 90.37,53.58 123.66,91.19 33.28,37.6 59.8,80.09 79.28,127.98 19.75,47.9 29.5,96.33 29.5,145.59 0,51.13 -9.21,100.93 -27.88,149.09 -18.39,47.9 -43.83,90.65 -76.3,127.45 -32.74,37.07 -73.06,66.84 -120.96,89.29 -48.16,22.46 -99.57,33.56 -154.77,33.56l-188.6 0 0 353.66 -316.32 0zm316.32 -630.21l167.22 0c22.18,0 41.13,-9.74 56.83,-29.49 15.42,-19.48 23.27,-50.6 23.27,-93.35 0,-43.3 -8.66,-74.95 -26.52,-94.44 -17.59,-19.48 -38.16,-29.23 -61.42,-29.23l-159.37 0 0 246.51z"/>
   <path class="fil2" d="M3335.55 138.23c108.24,0 203.75,22.73 286.83,68.19 83.07,45.45 144.76,106.34 185.62,183.19l-241.91 171.82c-10.56,-26.78 -24.89,-50.05 -42.76,-69.27 -17.86,-19.21 -38.16,-34.09 -60.34,-44.37 -22.18,-10.28 -44.1,-17.86 -66.02,-22.2 -21.92,-4.6 -44.65,-6.76 -67.92,-6.76 -43.29,0 -82.25,8.93 -116.35,26.52 -34.37,17.6 -61.97,41.13 -82.26,70.63 -20.29,29.23 -35.71,61.42 -46.27,96.33 -10.56,34.9 -15.96,70.89 -15.96,108.5 0,84.15 24.09,155.86 72.25,215.66 48.16,59.8 112.03,89.57 191.85,89.57 31.12,0 60.88,-4.32 89.57,-12.99 28.41,-8.93 56.01,-24.09 81.98,-45.99 26.25,-21.92 45.46,-49.25 57.64,-81.99l258.41 153.7c-21.65,54.38 -59.8,102.55 -113.92,144.23 -54.12,41.66 -114.19,72.79 -180.22,93.08 -66.02,20.56 -132.59,30.57 -199.96,30.57 -82.26,0 -160.19,-17.04 -233.25,-51.41 -73.33,-34.37 -134.75,-79.55 -184.82,-135.3 -49.79,-55.74 -89.29,-119.33 -117.97,-191.04 -28.95,-71.44 -43.3,-144.23 -43.3,-217.56 0,-70.9 13.53,-140.16 40.86,-208.08 27.06,-67.91 65.21,-129.07 114.18,-183.46 48.71,-54.39 110.94,-98.5 186.71,-131.78 75.5,-33.28 158.03,-49.79 247.32,-49.79z"/>
  </g>
 </g>
</svg>
