<?xml version="1.0" encoding="UTF-8"?>
<!DOCTYPE svg PUBLIC "-//W3C//DTD SVG 1.1//EN" "http://www.w3.org/Graphics/SVG/1.1/DTD/svg11.dtd">
<!-- Creator: CorelDRAW -->
<svg xmlns="http://www.w3.org/2000/svg" xml:space="preserve" width="18.5314mm" height="10.4604mm" version="1.1" style="shape-rendering:geometricPrecision; text-rendering:geometricPrecision; image-rendering:optimizeQuality; fill-rule:evenodd; clip-rule:evenodd"
viewBox="0 0 1063.06 600.06"
 xmlns:xlink="http://www.w3.org/1999/xlink"
 xmlns:xodm="http://www.corel.com/coreldraw/odm/2003">
 <defs>
  <style type="text/css">
   <![CDATA[
    .fil0 {fill:#00D25B}
    .fil1 {fill:#FEFEFE;fill-rule:nonzero}
   ]]>
  </style>
 </defs>
 <g id="Camada_x0020_1">
  <metadata id="CorelCorpID_0Corel-Layer"/>
  <g id="_1966804232912">
   <path class="fil0" d="M254.99 169.49c-156.55,-46.08 -269.88,72.21 -253.39,200.89 8.85,69.13 49.58,114.85 94.34,139.96 78.33,43.96 120.38,21.56 192.43,-1.87 23.66,26.55 32.46,44.65 67.61,65.98 29.98,18.2 71.8,28.63 113.59,24.82 87.46,-7.98 126.62,-59.18 158.34,-117.25 101.29,93.46 249.18,45.44 283.36,-27.19 47.03,3.88 64.92,11.67 104.2,-15.12 57,-38.88 66.87,-122.85 7.31,-174.53 -33.9,-29.42 -57.51,-23.5 -105.1,-23.47 -25.76,-30.17 -34.42,-47.07 -76.94,-66.25 -43.04,-19.41 -78.16,-19.68 -128.06,-12.42 -0.81,-1.04 -1.88,-4.03 -2.21,-3.28 -0.33,0.74 -1.69,-2.51 -2.12,-3.3 -5.15,-9.35 -0.74,-0.48 -5.23,-10.19 -69.41,-150.23 -235.67,-191.65 -368.29,-91.89 -55.89,42.04 -60.85,93.31 -79.82,115.1z"/>
   <g>
    <polygon class="fil1" points="236.29,236.08 275.23,372.21 313.74,236.08 371.29,236.08 302.46,435.43 248.04,435.43 178.41,236.08 "/>
    <path class="fil1" d="M485.2 301.22c-0.8,-0.46 -1.92,-1.12 -3.28,-1.92 -1.35,-0.84 -4.16,-2.29 -8.38,-4.4 -4.21,-2.11 -8.28,-3.93 -12.3,-5.57 -4.03,-1.59 -8.71,-3.04 -14.09,-4.35 -5.33,-1.36 -10.25,-2.01 -14.74,-2.01 -10.67,0 -16,3.28 -16,9.87 0,1.45 0.24,2.81 0.75,3.98 0.46,1.17 1.35,2.29 2.67,3.28 1.26,1.03 2.52,1.88 3.74,2.62 1.26,0.75 3.14,1.54 5.71,2.48 2.58,0.89 4.77,1.63 6.6,2.2 1.82,0.52 4.58,1.36 8.32,2.52 3.75,1.12 6.83,2.06 9.22,2.81 8.05,2.48 14.83,4.86 20.5,7.25 5.62,2.39 11.04,5.29 16.38,8.71 5.29,3.41 9.55,7.21 12.73,11.32 3.23,4.11 5.75,9.08 7.63,14.88 1.87,5.8 2.81,12.35 2.81,19.65 0,9.21 -1.45,17.54 -4.4,24.94 -2.9,7.44 -6.78,13.48 -11.6,18.2 -4.77,4.68 -10.53,8.61 -17.17,11.7 -6.69,3.09 -13.53,5.28 -20.5,6.6 -7.02,1.26 -14.36,1.92 -22.14,1.92 -14.36,0 -29.38,-2.15 -45.11,-6.41 -15.72,-4.21 -29.57,-9.87 -41.56,-16.89l23.59 -48.01c0.94,0.65 2.15,1.45 3.79,2.43 1.59,0.94 4.87,2.67 9.88,5.19 4.96,2.53 9.87,4.73 14.69,6.65 4.86,1.92 10.62,3.69 17.22,5.29 6.64,1.59 12.78,2.39 18.44,2.39 10.62,0 15.91,-2.95 15.91,-8.8 0,-2.15 -0.7,-4.12 -2.06,-5.81 -1.35,-1.68 -3.65,-3.22 -6.83,-4.68 -3.23,-1.41 -6.32,-2.58 -9.26,-3.56 -2.99,-0.94 -7.16,-2.25 -12.63,-3.84 -5.43,-1.59 -9.92,-2.99 -13.48,-4.16 -17.92,-6.03 -30.83,-13.29 -38.74,-21.76 -7.9,-8.42 -11.84,-19.84 -11.84,-34.16 0,-10.72 2.01,-20.4 6.09,-29.11 4.07,-8.66 9.55,-15.77 16.47,-21.24 6.88,-5.47 14.79,-9.69 23.63,-12.59 8.84,-2.95 18.29,-4.4 28.21,-4.4 21.34,0 46.24,7.16 74.73,21.52l-23.58 45.25z"/>
    <path class="fil1" d="M522.05 435.43l0 -199.34 85.96 0c9.41,0 18.39,2.01 26.86,6.04 8.52,4.02 15.63,9.26 21.39,15.77 5.76,6.51 10.34,13.85 13.71,22.13 3.42,8.28 5.1,16.66 5.1,25.18 0,8.84 -1.59,17.45 -4.82,25.78 -3.18,8.28 -7.58,15.68 -13.19,22.04 -5.66,6.41 -12.63,11.56 -20.92,15.44 -8.33,3.88 -17.22,5.81 -26.77,5.81l-32.62 0 0 61.16 -54.7 0zm54.7 -108.98l28.92 0c3.84,0 7.11,-1.69 9.83,-5.1 2.67,-3.37 4.03,-8.75 4.03,-16.14 0,-7.49 -1.5,-12.96 -4.59,-16.33 -3.04,-3.37 -6.6,-5.05 -10.62,-5.05l-27.56 0 0 42.63z"/>
    <path class="fil1" d="M755.24 235.85c18.72,0 35.23,3.93 49.6,11.79 14.37,7.86 25.04,18.39 32.1,31.68l-41.83 29.72c-1.82,-4.64 -4.31,-8.66 -7.39,-11.98 -3.09,-3.32 -6.6,-5.89 -10.43,-7.67 -3.84,-1.78 -7.63,-3.09 -11.42,-3.84 -3.79,-0.8 -7.72,-1.17 -11.75,-1.17 -7.49,0 -14.23,1.54 -20.12,4.58 -5.94,3.04 -10.72,7.11 -14.23,12.21 -3.51,5.05 -6.18,10.62 -8,16.66 -1.82,6.03 -2.76,12.26 -2.76,18.76 0,14.55 4.16,26.96 12.49,37.29 8.33,10.34 19.37,15.49 33.17,15.49 5.38,0 10.53,-0.75 15.49,-2.25 4.92,-1.54 9.69,-4.16 14.18,-7.96 4.54,-3.79 7.86,-8.51 9.96,-14.17l44.69 26.58c-3.74,9.4 -10.34,17.73 -19.7,24.94 -9.36,7.21 -19.75,12.59 -31.17,16.1 -11.42,3.56 -22.93,5.29 -34.58,5.29 -14.23,0 -27.7,-2.95 -40.33,-8.89 -12.68,-5.94 -23.31,-13.76 -31.96,-23.4 -8.61,-9.64 -15.44,-20.63 -20.4,-33.04 -5.01,-12.35 -7.49,-24.94 -7.49,-37.62 0,-12.26 2.34,-24.24 7.06,-35.99 4.68,-11.75 11.28,-22.32 19.75,-31.73 8.42,-9.4 19.18,-17.03 32.29,-22.79 13.06,-5.76 27.33,-8.61 42.77,-8.61z"/>
   </g>
  </g>
 </g>
</svg>
